<svg xmlns="http://www.w3.org/2000/svg" viewBox="0 0 89.17 89.17"><defs><style>.cls-1{fill:#be1e2d;}</style></defs><title>back-game</title><g id="Camada_2" data-name="Camada 2"><g id="PÁGINA_LIKES" data-name="PÁGINA LIKES"><path class="cls-1" d="M44.58,0A44.58,44.58,0,1,0,89.17,44.58,44.58,44.58,0,0,0,44.58,0Zm25.5,46.58h-41L46.85,64.32a2.5,2.5,0,1,1-3.54,3.54l-22-22a2.52,2.52,0,0,1-.31-.38c0-.06-.06-.12-.1-.18a2.48,2.48,0,0,1-.13-.25,2.39,2.39,0,0,1-.08-.25c0-.07-.05-.14-.07-.22a2.51,2.51,0,0,1,0-1c0-.08,0-.15.07-.22a1.47,1.47,0,0,1,.21-.5c0-.06.06-.12.1-.18a2.52,2.52,0,0,1,.31-.38l22-22a2.5,2.5,0,0,1,3.54,3.54L29.12,41.58h41a2.5,2.5,0,0,1,0,5Z"/></g></g></svg>